HIERARCHY
ROOT Model_Hips
{
	OFFSET 0.000000 96.915077 0.000000
	CHANNELS 6 Xposition Yposition Zposition Xrotation Yrotation Zrotation
	JOINT Model_Spine
	{
		OFFSET 0.000000 11.137703 -1.289900
		CHANNELS 3 Xrotation Yrotation Zrotation
		JOINT Model_Spine1
		{
			OFFSET 0.000000 12.993942 -1.504922
			CHANNELS 3 Xrotation Yrotation Zrotation
			JOINT Model_Spine2
			{
				OFFSET 0.000000 14.850220 -1.719911
				CHANNELS 3 Xrotation Yrotation Zrotation
				JOINT Model_Neck
				{
					OFFSET 0.000000 16.706543 -1.934903
					CHANNELS 3 Xrotation Yrotation Zrotation
					JOINT Model_Head
					{
						OFFSET 0.000000 10.471298 2.002100
						CHANNELS 3 Xrotation Yrotation Zrotation
						JOINT Model_HeadTop_End
						{
							OFFSET 0.000000 20.842606 3.985100
							CHANNELS 3 Xrotation Yrotation Zrotation
							End Site
							{
								OFFSET 0.000000 21.220154 0.000000
							}
						}
					}
				}
				JOINT Model_LeftShoulder
				{
					OFFSET 7.008500 14.768600 -1.919946
					CHANNELS 3 Xrotation Yrotation Zrotation
					JOINT Model_LeftArm
					{
						OFFSET 14.126271 -3.718048 0.029937
						CHANNELS 3 Xrotation Yrotation Zrotation
						JOINT Model_LeftForeArm
						{
							OFFSET 28.282801 0.000000 0.000000
							CHANNELS 3 Xrotation Yrotation Zrotation
							JOINT Model_LeftHand
							{
								OFFSET 26.204689 0.000000 0.000000
								CHANNELS 3 Xrotation Yrotation Zrotation
								End Site
								{
									OFFSET 26.204704 0.000000 0.000000
								}
							}
						}
					}
				}
				JOINT Model_RightShoulder
				{
					OFFSET -7.008500 14.768555 -1.949840
					CHANNELS 3 Xrotation Yrotation Zrotation
					JOINT Model_RightArm
					{
						OFFSET -14.126281 -3.718018 -0.029932
						CHANNELS 3 Xrotation Yrotation Zrotation
						JOINT Model_RightForeArm
						{
							OFFSET -28.283798 0.000000 -0.000001
							CHANNELS 3 Xrotation Yrotation Zrotation
							JOINT Model_RightHand
							{
								OFFSET -26.204193 0.000000 -0.000001
								CHANNELS 3 Xrotation Yrotation Zrotation
								End Site
								{
									OFFSET -26.204208 0.000000 -0.000001
								}
							}
						}
					}
				}
			}
		}
	}
	JOINT Model_LeftUpLeg
	{
		OFFSET 8.327700 -6.193199 -0.402800
		CHANNELS 3 Xrotation Yrotation Zrotation
		JOINT Model_LeftLeg
		{
			OFFSET 0.735802 -42.108742 -0.610721
			CHANNELS 3 Xrotation Yrotation Zrotation
			JOINT Model_LeftFoot
			{
				OFFSET -0.735806 -36.833748 -0.172876
				CHANNELS 3 Xrotation Yrotation Zrotation
				JOINT Model_LeftToeBase
				{
					OFFSET -0.565857 -11.977769 16.297714
					CHANNELS 3 Xrotation Yrotation Zrotation
					JOINT Model_LeftToe_End
					{
						OFFSET -0.111712 -0.312793 7.857784
						CHANNELS 3 Xrotation Yrotation Zrotation
						End Site
						{
							OFFSET -0.111712 -0.312793 7.857784
						}
					}
				}
			}
		}
	}
	JOINT Model_RightUpLeg
	{
		OFFSET -8.327700 -6.193199 -0.516500
		CHANNELS 3 Xrotation Yrotation Zrotation
		JOINT Model_RightLeg
		{
			OFFSET -0.735785 -42.108738 -0.434061
			CHANNELS 3 Xrotation Yrotation Zrotation
			JOINT Model_RightFoot
			{
				OFFSET 0.735776 -36.833748 -0.021630
				CHANNELS 3 Xrotation Yrotation Zrotation
				JOINT Model_RightToeBase
				{
					OFFSET 0.565817 -11.977745 15.903093
					CHANNELS 3 Xrotation Yrotation Zrotation
					JOINT Model_RightToe_End
					{
						OFFSET 0.111702 -0.312791 7.811342
						CHANNELS 3 Xrotation Yrotation Zrotation
						End Site
						{
							OFFSET 0.111702 -0.312791 7.811342
						}
					}
				}
			}
		}
	}
}
MOTION
Frames: 13
Frame Time: 0.016667
-0.229424 91.603638 -0.496276 -1.837229 11.215738 -2.873532 6.487712 0.973199 1.019246 12.958583 1.666419 2.091533 12.958586 1.666417 2.091535 -5.007065 -2.687758 -0.306583 -5.007094 -2.687761 -0.306584 -0.000001 0.000001 -0.000000 3.000450 1.006163 12.362230 0.507412 0.328062 -81.031588 4.673364 -66.568431 4.289248 -0.000000 -0.000001 -0.000000 8.228157 -14.755720 -7.900235 -3.258611 17.428278 68.198756 1.663976 73.431480 -1.642913 0.000000 0.000002 0.000001 1.529563 -1.696114 13.881617 36.786132 -0.029436 -1.491406 -28.596764 -1.114397 -9.381278 -11.829510 -0.052117 0.493580 -0.000000 0.000000 0.000000 -27.167825 -5.439303 -6.130254 29.513080 0.785587 1.317122 0.779679 -13.034942 4.740068 0.000020 0.000006 0.000002 0.000000 -0.000001 -0.000000 
-0.212719 91.584244 -0.535181 -1.358306 11.053185 -2.764005 6.382422 0.937215 0.976611 12.748797 1.588798 2.026819 12.748792 1.588798 2.026819 -5.047489 -2.694328 -0.288110 -5.047496 -2.694320 -0.288111 -0.000001 0.000000 -0.000000 2.917425 0.533384 11.605136 2.175606 0.957598 -80.339520 4.604289 -67.370753 4.250973 0.000000 -0.000000 -0.000000 8.028209 -14.262244 -7.339652 -2.968115 16.835366 67.964173 1.609098 74.011472 -1.591701 0.000001 -0.000002 0.000001 1.048080 -1.965501 13.516145 36.866137 -0.029954 -1.494684 -28.593060 -0.704187 -9.275493 -11.664052 0.017896 0.432165 0.000000 -0.000000 -0.000000 -27.781677 -5.186546 -6.281615 29.597252 0.784976 1.321890 0.829625 -13.042803 4.768484 0.054379 -0.180482 0.135128 0.000000 0.000000 0.000000 
-0.196384 91.566498 -0.573382 -0.884339 10.892963 -2.650525 6.277578 0.900512 0.934946 12.539876 1.510232 1.963993 12.539876 1.510230 1.963995 -5.088530 -2.699038 -0.276330 -5.088504 -2.699043 -0.276327 0.000001 0.000000 -0.000000 2.832082 0.055766 10.836831 3.846547 1.574953 -79.636536 4.516536 -68.170329 4.193655 0.000001 -0.000001 -0.000000 7.829244 -13.773014 -6.784417 -2.684179 16.242965 67.739248 1.552494 74.585823 -1.538378 0.000000 -0.000002 0.000002 0.567045 -2.203421 13.156417 36.935672 -0.030397 -1.497747 -28.584837 -0.322686 -9.172739 -11.475272 0.075780 0.375515 0.000000 -0.000000 -0.000000 -28.382021 -4.916303 -6.426917 29.670741 0.784597 1.325909 0.885538 -13.066937 4.803283 0.109345 -0.345096 0.258702 0.000000 0.000000 0.000000 
-0.181546 91.551979 -0.609692 -0.427692 10.735711 -2.529609 6.174831 0.861311 0.896200 12.335153 1.427494 1.906646 12.335147 1.427499 1.906643 -5.130940 -2.698500 -0.281625 -5.130919 -2.698500 -0.281625 0.000003 0.000000 0.000000 2.742356 -0.438683 10.043242 5.531490 2.153156 -78.895959 4.363790 -68.967623 4.073864 0.000001 -0.000001 0.000001 7.631873 -13.291516 -6.243514 -2.410456 15.648551 67.532457 1.495907 75.152032 -1.484699 0.000002 -0.000001 0.000002 0.098299 -2.373647 12.817933 36.980645 -0.031829 -1.500486 -28.564642 -0.009237 -9.083288 -11.218300 0.104462 0.330153 0.000000 -0.000000 -0.000000 -28.950587 -4.605397 -6.559754 29.729945 0.783933 1.328917 0.947803 -13.131717 4.849775 0.171119 -0.463406 0.346998 -0.000000 0.000001 -0.000000 
-0.168768 91.540413 -0.645189 0.029380 10.583953 -2.405531 6.071333 0.820443 0.859628 12.128904 1.342160 1.853607 12.128901 1.342162 1.853606 -5.174138 -2.694726 -0.299396 -5.174135 -2.694730 -0.299394 0.000000 -0.000001 0.000000 2.648998 -0.944452 9.230679 7.206206 2.746677 -78.159508 4.180973 -69.735999 3.922803 -0.000000 0.000000 -0.000000 7.436029 -12.819209 -5.716957 -2.150564 15.062731 67.347810 1.435899 75.697750 -1.427215 0.000002 0.000000 0.000002 -0.377564 -2.487423 12.498218 37.007184 -0.033974 -1.502932 -28.533486 0.244108 -9.005125 -10.935007 0.108024 0.297809 0.000000 -0.000000 -0.000000 -29.505847 -4.264948 -6.682625 29.772282 0.783020 1.330816 1.019365 -13.229413 4.905641 0.219040 -0.564519 0.423162 -0.000000 0.000000 0.000000 
-0.159264 91.532600 -0.680883 0.495463 10.441345 -2.281788 5.965722 0.777808 0.825612 11.918421 1.254157 1.805790 11.918419 1.254156 1.805789 -5.218037 -2.688228 -0.330060 -5.218046 -2.688226 -0.330061 0.000001 -0.000000 0.000000 2.551769 -1.462459 8.397937 8.853651 3.408077 -77.456107 3.993168 -70.448484 3.763387 -0.000002 -0.000002 -0.000001 7.242020 -12.357898 -5.206750 -1.909309 14.495319 67.192157 1.369258 76.207043 -1.362736 0.000003 0.000001 -0.000001 -0.873695 -2.531856 12.205154 37.015975 -0.036994 -1.505110 -28.489259 0.419433 -8.941601 -10.646112 0.076142 0.287629 0.000000 -0.000000 -0.000000 -30.052238 -3.891939 -6.792476 29.789839 0.781660 1.331132 1.105552 -13.368246 4.972707 0.231033 -0.661543 0.498090 0.000000 0.000000 -0.000000 
-0.152194 91.526878 -0.715752 0.985394 10.305266 -2.157156 5.855086 0.734406 0.792702 11.697855 1.165288 1.760397 11.697856 1.165288 1.760397 -5.261437 -2.680105 -0.368911 -5.261452 -2.680101 -0.368911 -0.000002 -0.000000 0.000000 2.452145 -1.985182 7.554117 10.469329 4.118628 -76.796270 3.796770 -71.104872 3.592522 0.000000 -0.000001 0.000001 7.050085 -11.909983 -4.715763 -1.686102 13.946273 67.065088 1.297065 76.688244 -1.292311 -0.000002 -0.000000 0.000002 -1.398642 -2.542039 11.923233 37.011955 -0.040708 -1.507152 -28.434638 0.554937 -8.886401 -10.370127 0.035664 0.284603 0.000001 0.000000 0.000000 -30.612542 -3.505266 -6.899709 29.792459 0.780135 1.330511 1.201228 -13.524588 5.044798 0.218700 -0.772259 0.584598 0.000000 0.000001 -0.000000 
-0.147181 91.523079 -0.748837 1.522140 10.174051 -2.031012 5.735227 0.691184 0.759252 11.458827 1.077349 1.714479 11.458821 1.077346 1.714479 -5.303265 -2.671627 -0.412417 -5.303276 -2.671630 -0.412417 0.000000 0.000000 0.000000 2.351026 -2.505955 6.707733 12.041750 4.886267 -76.205042 3.600649 -71.693313 3.418650 0.000001 -0.000002 -0.000001 6.860338 -11.479873 -4.247322 -1.484569 13.422279 66.970661 1.218275 77.135334 -1.214994 -0.000001 0.000001 0.000000 -1.969935 -2.543812 11.637416 36.993947 -0.044563 -1.509071 -28.369133 0.679510 -8.833321 -10.142051 0.010017 0.276816 0.000000 0.000001 -0.000000 -31.212940 -3.116191 -7.012257 29.781155 0.778059 1.329012 1.306143 -13.683205 5.116866 0.178330 -0.922832 0.702600 0.000000 -0.000001 0.000000 
-0.143754 91.517845 -0.780887 2.089751 10.049326 -1.904303 5.608838 0.648396 0.726128 11.206742 0.990698 1.669345 11.206746 0.990699 1.669345 -5.343405 -2.662902 -0.457548 -5.343438 -2.662904 -0.457550 -0.000000 0.000000 0.000000 2.248913 -3.023775 5.859319 13.577408 5.685215 -75.668961 3.396562 -72.221519 3.234479 -0.000001 0.000000 -0.000001 6.672511 -11.063535 -3.803021 -1.297078 12.913419 66.902850 1.135683 77.574891 -1.133666 0.000000 0.000002 0.000001 -2.575716 -2.548273 11.349948 36.978122 -0.048715 -1.511058 -28.302147 0.802321 -8.782272 -9.933265 -0.001879 0.261928 0.000000 -0.000001 -0.000000 -31.846368 -2.743201 -7.133145 29.771845 0.776260 1.327639 1.410811 -13.827032 5.184877 0.135108 -1.101099 0.841702 0.000000 0.000001 -0.000000 
-0.140255 91.508789 -0.810875 2.690890 9.931069 -1.779820 5.475462 0.606739 0.693368 10.940610 0.906660 1.624958 10.940615 0.906659 1.624959 -5.382094 -2.655057 -0.498194 -5.382099 -2.655060 -0.498192 0.000002 -0.000001 0.000000 2.146935 -3.532149 5.016486 15.077974 6.489997 -75.188314 3.179116 -72.694742 3.035277 -0.000000 -0.000001 0.000001 6.486371 -10.662169 -3.385029 -1.119637 12.414302 66.857300 1.050994 78.029304 -1.050039 0.000001 0.000000 0.000001 -3.211062 -2.618827 11.043351 36.975799 -0.052588 -1.513291 -28.241756 0.988273 -8.723049 -9.734131 0.023273 0.223314 -0.000000 -0.000001 -0.000000 -32.525071 -2.424083 -7.271513 29.776435 0.774481 1.327084 1.506267 -13.918181 5.236560 0.081404 -1.311518 0.971826 -0.000000 -0.000000 -0.000000 
-0.139830 91.492744 -0.843216 3.292711 9.822072 -1.651833 5.340624 0.565782 0.661740 10.671560 0.824071 1.582577 10.671558 0.824077 1.582576 -5.417506 -2.646383 -0.540106 -5.417520 -2.646384 -0.540107 0.000000 -0.000000 0.000000 2.043172 -4.040766 4.168201 16.544275 7.307153 -74.748579 2.947459 -73.109314 2.820306 -0.000001 0.000001 -0.000001 6.300850 -10.264542 -2.995223 -0.945652 11.918000 66.833715 0.964640 78.504466 -0.964570 0.000001 -0.000001 0.000000 -3.875237 -2.624235 10.757667 37.002461 -0.057136 -1.515924 -28.196187 1.098229 -8.675971 -9.522593 0.035557 0.191682 -0.000000 0.000002 0.000000 -33.221822 -2.112083 -7.415282 29.814438 0.773316 1.328463 1.585289 -14.003869 5.283501 0.001523 -1.531519 1.050306 0.000000 -0.000000 0.000000 
-0.140733 91.463684 -0.880171 3.867112 9.719472 -1.524967 5.208914 0.525923 0.634107 10.408768 0.743477 1.545074 10.408777 0.743483 1.545073 -5.449684 -2.635619 -0.583156 -5.449670 -2.635614 -0.583155 0.000001 0.000000 0.000000 1.936928 -4.554092 3.308794 17.982848 8.130522 -74.336692 2.698915 -73.468267 2.587289 -0.000001 -0.000001 0.000001 6.115789 -9.868417 -2.643483 -0.773766 11.424476 66.836563 0.877087 79.016655 -0.877699 -0.000001 -0.000002 0.000002 -4.506165 -2.499378 10.497587 36.988456 -0.068720 -1.517883 -28.222014 1.122875 -8.625154 -9.266015 -0.001355 0.186898 0.000000 -0.000001 0.000000 -33.922766 -1.808184 -7.557815 29.914101 0.774447 1.333500 1.634411 -14.082785 5.327338 -0.047160 -1.737329 1.098929 0.000000 0.000001 0.000000 
-0.157452 91.427368 -0.927224 4.402892 9.639671 -1.372291 5.082551 0.485052 0.604255 10.156607 0.660696 1.507798 10.156603 0.660701 1.507796 -5.473439 -2.622766 -0.638913 -5.473454 -2.622766 -0.638914 -0.000000 -0.000000 -0.000000 1.826169 -5.080754 2.428151 19.376386 8.971531 -73.948430 2.436235 -73.756788 2.338875 -0.000000 -0.000000 -0.000002 5.928952 -9.448209 -2.308793 -0.584285 10.907810 66.847820 0.789361 79.556698 -0.790557 -0.000000 0.000001 0.000001 -5.276840 -2.119258 10.376018 37.204232 -0.075293 -1.523246 -28.168151 0.741343 -8.687518 -8.986555 -0.103024 0.227805 -0.000000 -0.000002 -0.000000 -34.602845 -1.407613 -7.691958 30.066940 0.776253 1.341241 1.663719 -14.262933 5.391429 -0.078110 -1.932099 1.135306 0.000000 -0.000000 0.000000 
